<svg width="120" height="120" viewBox="0 0 120 120" fill="none" xmlns="http://www.w3.org/2000/svg">
  <!-- Background circle -->
  <circle cx="60" cy="60" r="58" fill="url(#gradient)" stroke="rgba(255,255,255,0.2)" stroke-width="2"/>
  
  <!-- Truck body -->
  <path d="M25 70 L25 50 L35 50 L35 45 L45 45 L45 50 L55 50 L55 45 L65 45 L65 50 L75 50 L75 70 L25 70 Z" fill="white"/>
  
  <!-- Truck cabin -->
  <path d="M75 70 L75 50 L85 50 L85 40 L95 40 L95 70 L75 70 Z" fill="white"/>
  
  <!-- Windows -->
  <rect x="87" y="42" width="6" height="6" fill="#3B82F6" rx="1"/>
  <rect x="87" y="50" width="6" height="6" fill="#3B82F6" rx="1"/>
  
  <!-- Wheels -->
  <circle cx="35" cy="75" r="8" fill="#1F2937"/>
  <circle cx="35" cy="75" r="5" fill="#6B7280"/>
  <circle cx="85" cy="75" r="8" fill="#1F2937"/>
  <circle cx="85" cy="75" r="5" fill="#6B7280"/>
  
  <!-- Route line -->
  <path d="M20 85 L100 85" stroke="white" stroke-width="3" stroke-linecap="round" stroke-dasharray="5,5"/>
  
  <!-- GPS dot -->
  <circle cx="60" cy="85" r="3" fill="#10B981"/>
  
  <!-- Gradient definition -->
  <defs>
    <linearGradient id="gradient" x1="0%" y1="0%" x2="100%" y2="100%">
      <stop offset="0%" style="stop-color:#3B82F6;stop-opacity:1" />
      <stop offset="50%" style="stop-color:#8B5CF6;stop-opacity:1" />
      <stop offset="100%" style="stop-color:#EC4899;stop-opacity:1" />
    </linearGradient>
  </defs>
</svg>
